<?xml version="1.0" standalone="no"?>
<!DOCTYPE svg PUBLIC "-//W3C//DTD SVG 20010904//EN"
 "http://www.w3.org/TR/2001/REC-SVG-20010904/DTD/svg10.dtd">
<svg version="1.0" xmlns="http://www.w3.org/2000/svg"
 width="512.000000pt" height="512.000000pt" viewBox="0 0 512.000000 512.000000"
 preserveAspectRatio="xMidYMid meet">
<metadata>
Created by potrace 1.16, written by Peter Selinger 2001-2019
</metadata>
<g transform="translate(0.000000,512.000000) scale(0.100000,-0.100000)"
fill="#000000" stroke="none">
<path d="M0 2560 l0 -2560 2560 0 2560 0 0 2560 0 2560 -2560 0 -2560 0 0
-2560z m2963 1451 c493 -132 916 -250 939 -262 50 -25 130 -99 169 -155 15
-22 37 -69 49 -105 44 -128 46 -115 -269 -1289 -183 -682 -292 -1073 -309
-1105 -79 -148 -255 -246 -421 -232 -79 6 -1827 474 -1896 507 -142 69 -245
237 -245 400 0 69 554 2154 595 2239 52 108 167 202 286 236 112 31 137 26
1102 -234z"/>
<path d="M1925 4031 c-78 -20 -131 -68 -159 -143 -8 -24 -138 -500 -287 -1058
-180 -672 -272 -1032 -273 -1066 0 -67 36 -139 90 -176 31 -21 213 -74 879
-252 462 -123 869 -232 905 -241 54 -14 74 -15 117 -5 65 14 135 73 157 133
33 90 566 2101 566 2136 0 55 -47 140 -95 173 -32 22 -218 75 -918 263 -482
129 -894 237 -915 239 -20 3 -50 1 -67 -3z m980 -697 c457 -123 544 -149 567
-171 35 -33 43 -72 24 -116 -18 -43 -55 -69 -98 -69 -36 1 -1325 344 -1359
362 -29 16 -52 76 -45 115 7 38 42 73 82 84 33 9 11 14 829 -205z m-273 -504
c631 -169 675 -182 701 -210 63 -70 14 -180 -81 -180 -31 0 -1322 344 -1352
360 -49 26 -66 106 -33 157 15 22 62 51 85 53 4 0 310 -81 680 -180z m-414
-466 c381 -101 398 -107 430 -139 23 -25 32 -44 32 -67 0 -48 -32 -94 -74
-108 -33 -10 -65 -4 -378 80 -460 123 -471 126 -498 155 -34 36 -34 104 0 140
25 27 53 43 78 44 7 1 192 -47 410 -105z"/>
</g>
</svg>
